<?xml version="1.0" encoding="UTF-8"?>
<svg xmlns="http://www.w3.org/2000/svg" width="1120" height="720" viewBox="0 0 1120 720" font-family="Arial, Helvetica, sans-serif">
  <rect width="1120" height="720" fill="#ffffff"/>
  <text x="40" y="46" font-size="22" font-weight="bold" fill="#1f3a5f">2023 · 2024 · 2-yr average (€ million)</text>
  <text x="40" y="74" font-size="14" fill="#666666">Financial Profile chart — “Value of production” removed; 2-yr average added</text>

  <!-- legend -->
  <rect x="420" y="92" width="16" height="16" fill="#9fb2c8"/><text x="442" y="105" font-size="14" fill="#444">2023</text>
  <rect x="510" y="92" width="16" height="16" fill="#1f3a5f"/><text x="532" y="105" font-size="14" fill="#444">2024</text>
  <rect x="600" y="92" width="16" height="16" fill="#f2c200"/><text x="622" y="105" font-size="14" fill="#444">2-yr avg</text>

  <!-- axes: baseline y=600, scale 8 px/€m, max 60 -->
  <line x1="120" y1="600" x2="1060" y2="600" stroke="#bbbbbb"/>
  <g font-size="12" fill="#999999">
    <line x1="120" y1="600" x2="1060" y2="600" stroke="#e4e8ee"/>
    <line x1="120" y1="480" x2="1060" y2="480" stroke="#e4e8ee"/><text x="112" y="484" text-anchor="end">15</text>
    <line x1="120" y1="360" x2="1060" y2="360" stroke="#e4e8ee"/><text x="112" y="364" text-anchor="end">30</text>
    <line x1="120" y1="240" x2="1060" y2="240" stroke="#e4e8ee"/><text x="112" y="244" text-anchor="end">45</text>
    <line x1="120" y1="120" x2="1060" y2="120" stroke="#e4e8ee"/><text x="112" y="124" text-anchor="end">60</text>
    <text x="112" y="604" text-anchor="end">0</text>
  </g>

  <!-- Revenue group: 50.4->403, 44.2->354, 47.3->378 -->
  <rect x="230" y="197" width="70" height="403" fill="#9fb2c8"/>
  <rect x="308" y="246" width="70" height="354" fill="#1f3a5f"/>
  <rect x="386" y="222" width="70" height="378" fill="#f2c200"/>
  <text x="265" y="189" text-anchor="middle" font-size="13" fill="#555">50.4</text>
  <text x="343" y="238" text-anchor="middle" font-size="13" fill="#1f3a5f" font-weight="bold">44.2</text>
  <text x="421" y="214" text-anchor="middle" font-size="13" fill="#7a6300" font-weight="bold">47.3</text>
  <text x="343" y="628" text-anchor="middle" font-size="15" fill="#333">Revenue</text>

  <!-- EBITDA group: 3.6->29, 1.5->12, 2.6->21 -->
  <rect x="630" y="571" width="70" height="29" fill="#9fb2c8"/>
  <rect x="708" y="588" width="70" height="12" fill="#1f3a5f"/>
  <rect x="786" y="579" width="70" height="21" fill="#f2c200"/>
  <text x="665" y="563" text-anchor="middle" font-size="13" fill="#555">3.6</text>
  <text x="743" y="580" text-anchor="middle" font-size="13" fill="#1f3a5f" font-weight="bold">1.5</text>
  <text x="821" y="571" text-anchor="middle" font-size="13" fill="#7a6300" font-weight="bold">2.6</text>
  <text x="743" y="628" text-anchor="middle" font-size="15" fill="#333">EBITDA</text>
  <text x="743" y="650" text-anchor="middle" font-size="12" fill="#2e7d4f">margin: 7.2% · 3.5% · ~5.5% avg</text>

  <text x="40" y="690" font-size="12" fill="#999999">2-yr avg = annual average of 2023+2024, smoothing the project-cycle WIP effect. Source: Coface reclassified P&#38;L.</text>
</svg>
